<svg width="26" height="26" viewBox="0 0 26 26" fill="none" xmlns="http://www.w3.org/2000/svg">
<path d="M1 1H3.66667L4.2 3.66667M4.2 3.66667H25L19.6667 14.3333H6.33333M4.2 3.66667L6.33333 14.3333M6.33333 14.3333L3.276 17.3907C2.436 18.2307 3.03067 19.6667 4.21867 19.6667H19.6667M19.6667 19.6667C18.9594 19.6667 18.2811 19.9476 17.781 20.4477C17.281 20.9478 17 21.6261 17 22.3333C17 23.0406 17.281 23.7189 17.781 24.219C18.2811 24.719 18.9594 25 19.6667 25C20.3739 25 21.0522 24.719 21.5523 24.219C22.0524 23.7189 22.3333 23.0406 22.3333 22.3333C22.3333 21.6261 22.0524 20.9478 21.5523 20.4477C21.0522 19.9476 20.3739 19.6667 19.6667 19.6667ZM9 22.3333C9 23.0406 8.71905 23.7189 8.21895 24.219C7.71885 24.719 7.04058 25 6.33333 25C5.62609 25 4.94781 24.719 4.44772 24.219C3.94762 23.7189 3.66667 23.0406 3.66667 22.3333C3.66667 21.6261 3.94762 20.9478 4.44772 20.4477C4.94781 19.9476 5.62609 19.6667 6.33333 19.6667C7.04058 19.6667 7.71885 19.9476 8.21895 20.4477C8.71905 20.9478 9 21.6261 9 22.3333Z" stroke="black" stroke-width="2" stroke-linecap="round" stroke-linejoin="round"/>
</svg>
